<svg width="39" height="34" viewBox="0 0 39 34" fill="none" xmlns="http://www.w3.org/2000/svg">
<path d="M9.09492 0.359221C10.8697 0.0621509 12.6598 0.214495 14.3203 0.762932L18.1137 6.66625L12.3703 12.4096C12.2561 12.5239 12.1875 12.6838 12.1951 12.8514C12.2027 13.019 12.2713 13.1713 12.3932 13.2856L20.9244 21.2075C21.1453 21.4131 21.4881 21.4284 21.7242 21.2303C21.9604 21.0323 22.0137 20.6971 21.8537 20.4381L17.2529 12.9657L24.1617 7.20707C24.3598 7.04711 24.4283 6.77289 24.3445 6.53676L22.6078 1.70746C24.7787 0.435393 27.3609 -0.0597239 29.8975 0.366839C35.1533 1.2352 39 5.77504 39 11.0995V11.5413C39 14.7024 37.6898 17.7264 35.3742 19.8821L21.61 32.7323C21.0387 33.2655 20.2846 33.5625 19.5 33.5625C18.7154 33.5625 17.9613 33.2655 17.39 32.7323L3.62578 19.8821C1.31016 17.7264 0 14.7024 0 11.5413V11.0995C0 5.77504 3.84668 1.2352 9.09492 0.359221Z" fill="#12A7FB"/>
</svg>
