<svg width="39" height="34" viewBox="0 0 39 34" fill="none" xmlns="http://www.w3.org/2000/svg">
<path d="M18.5859 3.39844L19.4314 4.3125L20.3455 3.39996C22.8973 0.91295 26.4316 -0.218964 29.9051 0.359181C35.1533 1.23363 39 5.775 39 11.0994V11.5412C39 14.7023 37.6898 17.7264 35.3742 19.882L21.61 32.7322C21.0387 33.2654 20.2846 33.5625 19.5 33.5625C18.7154 33.5625 17.9613 33.2654 17.39 32.7322L3.62502 19.882C1.31244 17.7264 0 14.7023 0 11.5412V11.0994C0 5.775 3.8482 1.23363 9.09492 0.359181C12.4998 -0.218964 16.1027 0.91295 18.5859 3.39844C18.5174 3.39844 18.5859 3.3992 18.5859 3.39844ZM19.4314 9.48457L16.0037 5.91973C14.3508 4.33383 12.0047 3.58125 9.69668 3.96516C6.21182 4.54635 3.65625 7.56504 3.65625 11.0994V11.5412C3.65625 13.6893 4.54822 15.7459 6.11965 17.2084L19.5 29.7006L32.8834 17.2084C34.4525 15.7459 35.3438 13.6893 35.3438 11.5412V11.0994C35.3438 7.56504 32.7844 4.54635 29.3033 3.96516C26.9953 3.58125 24.6492 4.33383 22.9963 5.91973L19.4314 9.48457Z" fill="#12A7FB"/>
</svg>
