<svg width="244" height="40" viewBox="0 0 244 40" fill="none" xmlns="http://www.w3.org/2000/svg">
<g clip-path="url(#clip0_7_25)">
<path d="M0.418457 30.6383V7.42747H2.21481V10.9333H2.39596C2.83876 9.76468 3.60359 8.83787 4.69046 8.1528C5.77733 7.46776 7.0856 7.12524 8.61525 7.12524C10.2959 7.12524 11.6494 7.52821 12.6759 8.33414C13.7125 9.14009 14.4572 10.2331 14.91 11.6133H15.0762C15.529 10.2533 16.3391 9.16528 17.5065 8.34925C18.684 7.53324 20.1331 7.12524 21.854 7.12524C24.0981 7.12524 25.8089 7.83547 26.9864 9.25592C28.1739 10.6663 28.7677 12.6005 28.7677 15.0586V30.6383H26.9261V15.0586C26.9261 13.1244 26.4631 11.6032 25.5372 10.4951C24.6114 9.3869 23.2528 8.83285 21.4615 8.83285C19.5494 8.83285 18.0801 9.43226 17.0536 10.6311C16.0272 11.8299 15.5139 13.3561 15.5139 15.2097V30.6383H13.6723V14.9377C13.6723 13.1345 13.2194 11.6687 12.3137 10.5403C11.4079 9.40196 10.0493 8.83285 8.23788 8.83285C7.01012 8.83285 5.94842 9.1149 5.05275 9.67907C4.16716 10.2432 3.47779 11.0189 2.98468 12.0061C2.50162 12.9934 2.2601 14.1268 2.2601 15.4062V30.6383H0.418457ZM37.0589 39.3424C36.5959 39.3424 36.138 39.292 35.6851 39.1912C35.2323 39.0905 34.8247 38.9596 34.4624 38.7984L35.0059 37.1814C35.9518 37.5441 36.8072 37.6751 37.5721 37.5744C38.347 37.4736 39.0313 37.121 39.625 36.5166C40.2188 35.9121 40.722 35.0256 41.1346 33.857L42.1913 30.9557L33.6925 7.42747H35.67L43.0366 28.2659H43.1876L50.5541 7.42747H52.5316L42.7498 34.5823C42.3775 35.63 41.9095 36.5065 41.3459 37.2117C40.7824 37.9168 40.1383 38.4458 39.4137 38.7984C38.6992 39.161 37.9142 39.3424 37.0589 39.3424Z" fill="white"/>
<path d="M58.2867 30.6383V7.42744H60.0831V10.9333H60.2642C60.707 9.76465 61.4718 8.83785 62.5588 8.15277C63.6456 7.46774 64.9539 7.12522 66.4835 7.12522C68.1641 7.12522 69.5177 7.52818 70.5442 8.33411C71.5807 9.14006 72.3255 10.2331 72.7783 11.6133H72.9444C73.3972 10.2533 74.2074 9.16525 75.3747 8.34923C76.5522 7.53322 78.0013 7.12522 79.7223 7.12522C81.9664 7.12522 83.6773 7.83545 84.8547 9.25589C86.0419 10.6663 86.6361 12.6005 86.6361 15.0586V30.6383H84.7943V15.0586C84.7943 13.1244 84.3314 11.6032 83.4055 10.495C82.4796 9.38687 81.1211 8.83282 79.3297 8.83282C77.4177 8.83282 75.9483 9.43223 74.9219 10.631C73.8954 11.8298 73.3822 13.3561 73.3822 15.2097V30.6383H71.5405V14.9377C71.5405 13.1344 71.0876 11.6687 70.182 10.5403C69.2762 9.40193 67.9176 8.83282 66.1061 8.83282C64.8784 8.83282 63.8167 9.11487 62.921 9.67904C62.0354 10.2431 61.3461 11.0189 60.853 12.0061C60.3699 12.9934 60.1284 14.1268 60.1284 15.4062V30.6383H58.2867ZM103.32 31.1218C101.227 31.1218 99.4058 30.603 97.8559 29.5653C96.306 28.5277 95.1081 27.1073 94.2631 25.304C93.418 23.5007 92.9946 21.4456 92.9946 19.1386C92.9946 16.8216 93.418 14.7564 94.2631 12.943C95.1183 11.1297 96.2907 9.69912 97.7802 8.65146C99.2697 7.60373 100.97 7.07988 102.882 7.07988C104.18 7.07988 105.408 7.34181 106.566 7.86567C107.733 8.37945 108.759 9.12491 109.645 10.1021C110.54 11.0793 111.24 12.258 111.743 13.6382C112.257 15.0183 112.513 16.5698 112.513 18.2924V19.4408H94.1576V17.7635H110.671C110.671 16.0812 110.33 14.565 109.645 13.215C108.961 11.8651 108.03 10.7922 106.852 9.99631C105.675 9.20048 104.352 8.80253 102.882 8.80253C101.342 8.80253 99.9686 9.23572 98.7613 10.1021C97.5634 10.9584 96.6129 12.117 95.9081 13.5777C95.2135 15.0384 94.8514 16.6704 94.8216 18.4738V19.2293C94.8216 21.1635 95.1583 22.9013 95.8325 24.4427C96.5169 25.9739 97.4937 27.1879 98.7613 28.0845C100.029 28.971 101.549 29.4143 103.32 29.4143C104.588 29.4143 105.67 29.2027 106.566 28.7796C107.471 28.3464 108.211 27.8225 108.785 27.2081C109.359 26.5935 109.791 25.9991 110.083 25.4249L111.759 26.1049C111.406 26.8807 110.858 27.6563 110.113 28.4321C109.378 29.1977 108.442 29.8373 107.306 30.3511C106.178 30.8649 104.849 31.1218 103.32 31.1218ZM118.853 30.6383V7.42744H120.65V10.9333H120.831C121.274 9.76465 122.038 8.83785 123.126 8.15277C124.212 7.46774 125.521 7.12522 127.05 7.12522C128.731 7.12522 130.084 7.52818 131.11 8.33411C132.148 9.14006 132.892 10.2331 133.345 11.6133H133.511C133.964 10.2533 134.774 9.16525 135.941 8.34923C137.119 7.53322 138.568 7.12522 140.289 7.12522C142.533 7.12522 144.244 7.83545 145.421 9.25589C146.609 10.6663 147.203 12.6005 147.203 15.0586V30.6383H145.361V15.0586C145.361 13.1244 144.898 11.6032 143.972 10.495C143.046 9.38687 141.687 8.83282 139.896 8.83282C137.984 8.83282 136.515 9.43223 135.489 10.631C134.462 11.8298 133.949 13.3561 133.949 15.2097V30.6383H132.107V14.9377C132.107 13.1344 131.655 11.6687 130.748 10.5403C129.843 9.40193 128.484 8.83282 126.673 8.83282C125.445 8.83282 124.383 9.11487 123.488 9.67904C122.602 10.2431 121.912 11.0189 121.419 12.0061C120.936 12.9934 120.695 14.1268 120.695 15.4062V30.6383H118.853ZM163.464 31.1218C161.552 31.1218 159.851 30.6081 158.362 29.5805C156.872 28.5429 155.7 27.1173 154.845 25.304C153.989 23.4907 153.562 21.4255 153.562 19.1084C153.562 16.7813 153.989 14.7161 154.845 12.9128C155.7 11.0995 156.872 9.67402 158.362 8.63631C159.851 7.5987 161.552 7.07988 163.464 7.07988C165.376 7.07988 167.077 7.5987 168.567 8.63631C170.056 9.67402 171.228 11.0995 172.084 12.9128C172.939 14.7262 173.367 16.7914 173.367 19.1084C173.367 21.4255 172.939 23.4907 172.084 25.304C171.228 27.1173 170.056 28.5429 168.567 29.5805C167.077 30.6081 165.376 31.1218 163.464 31.1218ZM163.464 29.4143C165.084 29.4143 166.498 28.9559 167.706 28.0391C168.924 27.1224 169.865 25.8833 170.529 24.3218C171.203 22.7603 171.54 21.0225 171.54 19.1084C171.54 17.1944 171.203 15.4616 170.529 13.9102C169.855 12.3487 168.913 11.1095 167.706 10.1928C166.498 9.26593 165.084 8.80253 163.464 8.80253C161.844 8.80253 160.43 9.26593 159.222 10.1928C158.015 11.1095 157.074 12.3487 156.4 13.9102C155.726 15.4616 155.388 17.1944 155.388 19.1084C155.388 21.0225 155.72 22.7603 156.384 24.3218C157.059 25.8833 158 27.1224 159.207 28.0391C160.424 28.9559 161.844 29.4143 163.464 29.4143ZM179.711 30.6383V7.42744H181.507V11.0541H181.673C182.176 9.86542 183.026 8.91334 184.224 8.19811C185.421 7.47277 186.785 7.1101 188.315 7.1101C188.476 7.1101 188.637 7.1101 188.798 7.1101C188.959 7.1101 189.11 7.11514 189.25 7.12522V8.98389C189.13 8.97385 188.984 8.9587 188.813 8.93853C188.652 8.90831 188.45 8.89325 188.209 8.89325C186.921 8.89325 185.774 9.17027 184.767 9.72431C183.771 10.2784 182.986 11.0441 182.413 12.0213C181.839 12.9884 181.552 14.0965 181.552 15.3457V30.6383H179.711ZM194.289 30.6383V7.42744H196.116V30.6383H194.289ZM195.21 3.31719C194.807 3.31719 194.455 3.17615 194.153 2.89408C193.861 2.612 193.716 2.26948 193.716 1.86651C193.716 1.46355 193.861 1.12102 194.153 0.838947C194.445 0.556871 194.797 0.415833 195.21 0.415833C195.612 0.415833 195.959 0.556871 196.252 0.838947C196.553 1.12102 196.704 1.46355 196.704 1.86651C196.704 2.26948 196.559 2.612 196.266 2.89408C195.975 3.17615 195.623 3.31719 195.21 3.31719ZM212.872 31.1218C210.779 31.1218 208.957 30.603 207.407 29.5653C205.857 28.5277 204.66 27.1073 203.814 25.304C202.969 23.5007 202.546 21.4456 202.546 19.1386C202.546 16.8216 202.969 14.7564 203.814 12.943C204.669 11.1297 205.842 9.69912 207.331 8.65146C208.821 7.60373 210.522 7.07988 212.434 7.07988C213.732 7.07988 214.96 7.34181 216.117 7.86567C217.284 8.37945 218.311 9.12491 219.196 10.1021C220.092 11.0793 220.791 12.258 221.294 13.6382C221.808 15.0183 222.065 16.5698 222.065 18.2924V19.4408H203.709V17.7635H220.223C220.223 16.0812 219.881 14.565 219.196 13.215C218.512 11.8651 217.581 10.7922 216.403 9.99631C215.227 9.20048 213.903 8.80253 212.434 8.80253C210.894 8.80253 209.52 9.23572 208.312 10.1021C207.115 10.9584 206.164 12.117 205.46 13.5777C204.765 15.0384 204.403 16.6704 204.373 18.4738V19.2293C204.373 21.1635 204.71 22.9013 205.384 24.4427C206.069 25.9739 207.045 27.1879 208.312 28.0845C209.581 28.971 211.1 29.4143 212.872 29.4143C214.139 29.4143 215.222 29.2027 216.117 28.7796C217.022 28.3464 217.762 27.8225 218.336 27.2081C218.91 26.5935 219.342 25.9991 219.634 25.4249L221.31 26.1049C220.958 26.8807 220.409 27.6563 219.665 28.4321C218.93 29.1977 217.994 29.8373 216.856 30.3511C215.729 30.8649 214.401 31.1218 212.872 31.1218ZM243.138 12.4293L241.432 12.8826C241.16 12.0364 240.773 11.306 240.269 10.6915C239.766 10.0769 239.133 9.60346 238.368 9.27104C237.613 8.92848 236.707 8.75725 235.65 8.75725C233.95 8.75725 232.556 9.18031 231.469 10.0265C230.392 10.8728 229.854 11.9759 229.854 13.3359C229.854 14.4441 230.221 15.3608 230.956 16.0862C231.69 16.8014 232.813 17.3454 234.322 17.7182L237.885 18.6098C239.716 19.063 241.095 19.7985 242.021 20.816C242.947 21.8234 243.409 23.0776 243.409 24.5787C243.409 25.8581 243.062 26.9915 242.368 27.9787C241.673 28.9659 240.712 29.7367 239.485 30.2907C238.267 30.8448 236.848 31.1218 235.228 31.1218C233.064 31.1218 231.288 30.6181 229.899 29.6107C228.511 28.5933 227.62 27.1375 227.227 25.2435L228.994 24.7903C229.325 26.3013 230.015 27.4549 231.061 28.2507C232.118 29.0365 233.502 29.4293 235.213 29.4293C237.104 29.4293 238.629 28.9811 239.787 28.0845C240.954 27.1879 241.538 26.0395 241.538 24.6391C241.538 23.5713 241.195 22.6696 240.511 21.9342C239.826 21.1988 238.79 20.6598 237.402 20.3173L233.703 19.4106C231.811 18.9472 230.392 18.2068 229.446 17.1892C228.5 16.1618 228.027 14.8974 228.027 13.3964C228.027 12.1472 228.354 11.0491 229.008 10.1021C229.663 9.15512 230.563 8.41471 231.711 7.88077C232.858 7.34685 234.171 7.07988 235.65 7.07988C237.613 7.07988 239.213 7.54329 240.451 8.47011C241.688 9.39691 242.584 10.7167 243.138 12.4293Z" fill="#12A7FB"/>
</g>
<defs>
<clipPath id="clip0_7_25">
<rect width="244" height="40" fill="white"/>
</clipPath>
</defs>
</svg>
