<svg width="221" height="48" viewBox="0 0 221 48" fill="none" xmlns="http://www.w3.org/2000/svg">
<path d="M0.492188 37V9.72727H2.60511V13.8466H2.81818C3.33902 12.4735 4.23864 11.3845 5.51705 10.5795C6.79545 9.77462 8.33428 9.37216 10.1335 9.37216C12.1103 9.37216 13.7024 9.84564 14.9098 10.7926C16.129 11.7396 17.005 13.0239 17.5376 14.6456H17.733C18.2656 13.0476 19.2185 11.7692 20.5916 10.8104C21.9766 9.85156 23.6811 9.37216 25.7053 9.37216C28.3449 9.37216 30.3572 10.2067 31.7422 11.8757C33.139 13.5329 33.8374 15.8056 33.8374 18.6939V37H31.6712V18.6939C31.6712 16.4212 31.1267 14.6338 30.0376 13.3317C28.9486 12.0296 27.3506 11.3786 25.2436 11.3786C22.9946 11.3786 21.2663 12.0829 20.0589 13.4915C18.8516 14.9001 18.2479 16.6934 18.2479 18.8714V37H16.0817V18.5518C16.0817 16.433 15.549 14.7107 14.4837 13.3849C13.4183 12.0473 11.8203 11.3786 9.68963 11.3786C8.2455 11.3786 6.99669 11.71 5.94318 12.3729C4.90152 13.0357 4.09067 13.9472 3.51065 15.1072C2.94247 16.2673 2.65838 17.599 2.65838 19.1023V37H0.492188ZM43.5897 47.2273C43.0452 47.2273 42.5066 47.1681 41.9739 47.0497C41.4412 46.9313 40.9618 46.7775 40.5357 46.5881L41.1749 44.6882C42.2876 45.1143 43.2937 45.2682 44.1934 45.1499C45.1048 45.0315 45.9097 44.6172 46.6081 43.907C47.3065 43.1967 47.8984 42.1551 48.3837 40.782L49.6266 37.3729L39.6301 9.72727H41.9561L50.6209 34.2124H50.7985L59.4632 9.72727H61.7892L50.2836 41.6342C49.8456 42.8653 49.2952 43.8951 48.6323 44.7237C47.9694 45.5523 47.2118 46.1738 46.3596 46.5881C45.5191 47.0142 44.5958 47.2273 43.5897 47.2273ZM164.572 0.636363V37H162.406V0.636363H164.572ZM173.646 37V9.72727H175.794V37H173.646ZM174.729 4.89773C174.255 4.89773 173.841 4.73201 173.486 4.40057C173.143 4.06913 172.971 3.66667 172.971 3.19318C172.971 2.7197 173.143 2.31723 173.486 1.98579C173.829 1.65435 174.243 1.48863 174.729 1.48863C175.202 1.48863 175.611 1.65435 175.954 1.98579C176.309 2.31723 176.487 2.7197 176.487 3.19318C176.487 3.66667 176.315 4.06913 175.972 4.40057C175.628 4.73201 175.214 4.89773 174.729 4.89773ZM202.197 15.6044L200.19 16.1371C199.871 15.1428 199.415 14.2846 198.823 13.5625C198.231 12.8404 197.486 12.2841 196.586 11.8935C195.698 11.491 194.633 11.2898 193.39 11.2898C191.389 11.2898 189.75 11.7869 188.472 12.7812C187.205 13.7756 186.572 15.0717 186.572 16.6697C186.572 17.9718 187.004 19.049 187.868 19.9013C188.732 20.7417 190.052 21.3809 191.827 21.8189L196.018 22.8665C198.172 23.3991 199.794 24.2633 200.883 25.4588C201.972 26.6425 202.516 28.1162 202.516 29.88C202.516 31.3833 202.108 32.715 201.291 33.875C200.474 35.035 199.344 35.9406 197.9 36.5916C196.468 37.2427 194.799 37.5682 192.893 37.5682C190.348 37.5682 188.259 36.9763 186.625 35.7926C184.991 34.5971 183.944 32.8866 183.482 30.6612L185.56 30.1286C185.95 31.9041 186.761 33.2595 187.992 34.1946C189.235 35.1179 190.863 35.5795 192.875 35.5795C195.1 35.5795 196.894 35.0528 198.255 33.9993C199.628 32.9458 200.315 31.5964 200.315 29.951C200.315 28.6963 199.912 27.6368 199.107 26.7727C198.302 25.9086 197.083 25.2753 195.45 24.8729L191.099 23.8075C188.874 23.263 187.205 22.393 186.092 21.1974C184.98 19.9901 184.423 18.5045 184.423 16.7408C184.423 15.273 184.808 13.9827 185.577 12.87C186.347 11.7573 187.406 10.8873 188.756 10.2599C190.105 9.63258 191.65 9.31889 193.39 9.31889C195.698 9.31889 197.58 9.8634 199.036 10.9524C200.492 12.0414 201.546 13.5921 202.197 15.6044ZM219.655 9.72727V11.6626H207.741V9.72727H219.655ZM211.771 3.19318H213.92V30.5547C213.92 31.6674 214.133 32.5788 214.559 33.2891C214.997 33.9875 215.565 34.5083 216.264 34.8516C216.974 35.183 217.731 35.3487 218.536 35.3487C218.927 35.3487 219.264 35.3191 219.548 35.2599C219.844 35.2008 220.123 35.1238 220.383 35.0291L220.916 37C220.584 37.1184 220.217 37.219 219.815 37.3018C219.412 37.3965 218.939 37.4439 218.394 37.4439C217.258 37.4439 216.181 37.1894 215.163 36.6804C214.157 36.1714 213.34 35.4316 212.713 34.4609C212.085 33.4903 211.771 32.3184 211.771 30.9453V3.19318Z" fill="#12A7FB"/>
<path d="M68.5586 47.2273V9.72727H70.6715V15.8175H70.9379C71.364 14.6456 71.9618 13.5684 72.7312 12.5859C73.5124 11.6035 74.4772 10.8163 75.6254 10.2244C76.7854 9.62074 78.1467 9.31889 79.7092 9.31889C81.9109 9.31889 83.8285 9.92258 85.462 11.13C87.0955 12.3374 88.3621 14.0064 89.2617 16.1371C90.1613 18.2559 90.6112 20.6884 90.6112 23.4347C90.6112 26.1809 90.1554 28.6193 89.244 30.75C88.3443 32.8688 87.0778 34.5379 85.4442 35.7571C83.8226 36.9645 81.9227 37.5682 79.7447 37.5682C78.194 37.5682 76.8327 37.2723 75.6609 36.6804C74.5008 36.0885 73.5243 35.3014 72.7312 34.3189C71.9499 33.3246 71.3522 32.2356 70.9379 31.0518H70.7248V47.2273H68.5586ZM70.6893 23.4169C70.6893 25.737 71.0444 27.8144 71.7546 29.6491C72.4648 31.4721 73.4828 32.9162 74.8086 33.9815C76.1344 35.035 77.7146 35.5618 79.5494 35.5618C81.4078 35.5618 82.9999 35.0291 84.3256 33.9638C85.6632 32.8866 86.6812 31.4306 87.3796 29.5959C88.0898 27.7611 88.445 25.7015 88.445 23.4169C88.445 21.1323 88.0958 19.0786 87.3974 17.2557C86.699 15.4328 85.6869 13.9946 84.3612 12.9411C83.0354 11.8757 81.4315 11.343 79.5494 11.343C77.6909 11.343 76.0988 11.8698 74.7731 12.9233C73.4592 13.965 72.4471 15.3973 71.7369 17.2202C71.0385 19.0312 70.6893 21.0968 70.6893 23.4169ZM100.266 0.636363V37H98.0996V0.636363H100.266ZM116.459 37.5859C114.885 37.5859 113.441 37.2723 112.127 36.6449C110.825 36.0175 109.777 35.1001 108.984 33.8928C108.203 32.6854 107.812 31.2176 107.812 29.4893C107.812 28.353 108.013 27.3527 108.416 26.4886C108.818 25.6245 109.44 24.8788 110.28 24.2514C111.12 23.6241 112.198 23.1091 113.512 22.7067C114.825 22.2924 116.394 21.9728 118.217 21.7479C119.602 21.5821 120.839 21.4223 121.928 21.2685C123.017 21.1027 123.869 20.8482 124.485 20.505C125.112 20.1617 125.426 19.6409 125.426 18.9425V17.8061C125.426 15.8175 124.798 14.2372 123.544 13.0653C122.289 11.8935 120.561 11.3075 118.359 11.3075C116.406 11.3075 114.76 11.7396 113.423 12.6037C112.097 13.456 111.168 14.5568 110.635 15.9062L108.593 15.1428C109.114 13.8407 109.866 12.7576 110.848 11.8935C111.843 11.0294 112.979 10.3842 114.257 9.9581C115.548 9.53196 116.897 9.31889 118.306 9.31889C119.525 9.31889 120.685 9.49053 121.786 9.83381C122.898 10.1771 123.887 10.6979 124.751 11.3963C125.627 12.0947 126.319 12.9884 126.828 14.0774C127.337 15.1546 127.592 16.4448 127.592 17.9482V37H125.426V32.0817H125.266C124.792 33.0997 124.141 34.0289 123.313 34.8693C122.496 35.6979 121.508 36.3608 120.347 36.858C119.199 37.3433 117.903 37.5859 116.459 37.5859ZM116.672 35.5795C118.377 35.5795 119.886 35.1652 121.2 34.3366C122.526 33.4962 123.561 32.348 124.307 30.892C125.053 29.4361 125.426 27.7848 125.426 25.9382V21.9254C125.153 22.1622 124.757 22.3752 124.236 22.5646C123.727 22.7422 123.147 22.902 122.496 23.044C121.857 23.1742 121.182 23.2926 120.472 23.3991C119.773 23.4938 119.093 23.5826 118.43 23.6655C116.441 23.9022 114.82 24.2692 113.565 24.7663C112.322 25.2517 111.41 25.8909 110.83 26.6839C110.262 27.477 109.978 28.4358 109.978 29.5604C109.978 31.4188 110.617 32.8866 111.896 33.9638C113.174 35.041 114.766 35.5795 116.672 35.5795ZM137.437 47.2273C136.893 47.2273 136.354 47.1681 135.822 47.0497C135.289 46.9313 134.809 46.7775 134.383 46.5881L135.023 44.6882C136.135 45.1143 137.141 45.2682 138.041 45.1499C138.952 45.0315 139.757 44.6172 140.456 43.907C141.154 43.1967 141.746 42.1551 142.231 40.782L143.474 37.3729L133.478 9.72727H135.804L144.469 34.2124H144.646L153.311 9.72727H155.637L144.131 41.6342C143.693 42.8653 143.143 43.8951 142.48 44.7237C141.817 45.5523 141.059 46.1738 140.207 46.5881C139.367 47.0142 138.443 47.2273 137.437 47.2273Z" fill="white"/>
</svg>
